<svg width="48" height="48" viewBox="0 0 48 48" fill="none" xmlns="http://www.w3.org/2000/svg">
<rect width="48" height="48" rx="4" fill="#ECF7F3"/>
<path d="M31.3086 22.8281V30.4297C31.026 30.8034 30.584 31.2135 29.9824 31.6602C29.39 32.0977 28.6016 32.4759 27.6172 32.7949C26.6328 33.1139 25.4069 33.2734 23.9395 33.2734C22.6908 33.2734 21.5469 33.0638 20.5078 32.6445C19.4688 32.2161 18.571 31.5918 17.8145 30.7715C17.0671 29.9512 16.4883 28.9531 16.0781 27.7773C15.668 26.5924 15.4629 25.2435 15.4629 23.7305V22.3496C15.4629 20.8457 15.6497 19.5059 16.0234 18.3301C16.4062 17.1452 16.9531 16.1426 17.6641 15.3223C18.375 14.502 19.2318 13.8822 20.2344 13.4629C21.2461 13.0345 22.39 12.8203 23.666 12.8203C25.2975 12.8203 26.6465 13.0938 27.7129 13.6406C28.7884 14.1784 29.6178 14.9258 30.2012 15.8828C30.7845 16.8398 31.1536 17.9336 31.3086 19.1641H27.9453C27.8359 18.4714 27.6217 17.8516 27.3027 17.3047C26.9928 16.7578 26.5462 16.3294 25.9629 16.0195C25.3887 15.7005 24.6413 15.541 23.7207 15.541C22.9277 15.541 22.2305 15.6914 21.6289 15.9922C21.0273 16.293 20.526 16.735 20.125 17.3184C19.7331 17.9017 19.4368 18.6126 19.2363 19.4512C19.0358 20.2897 18.9355 21.2467 18.9355 22.3223V23.7305C18.9355 24.8242 19.0495 25.7949 19.2773 26.6426C19.5143 27.4902 19.8516 28.2057 20.2891 28.7891C20.7357 29.3724 21.278 29.8145 21.916 30.1152C22.554 30.4069 23.2741 30.5527 24.0762 30.5527C24.86 30.5527 25.5026 30.4889 26.0039 30.3613C26.5052 30.2246 26.9017 30.0651 27.1934 29.8828C27.4941 29.6914 27.7266 29.5091 27.8906 29.3359V25.3848H23.748V22.8281H31.3086Z" fill="#48B774"/>
<circle cx="24" cy="24" r="17.5" stroke="#F9A779" stroke-width="5"/>
</svg>
